<svg height='100px' width='100px'  fill="#FFFFFF" xmlns="http://www.w3.org/2000/svg" xmlns:xlink="http://www.w3.org/1999/xlink" version="1.1" x="0px" y="0px" viewBox="0 0 66.307 66.307" style="enable-background:new 0 0 66.307 66.307;" xml:space="preserve"><g><path d="M64.702,30.366L37.12,14.442c-0.995-0.574-2.221-0.574-3.217,0s-1.609,1.639-1.609,2.787v13.072L4.827,14.442   c-0.997-0.574-2.222-0.574-3.218,0S0,16.081,0,17.229v31.849c0,1.148,0.613,2.211,1.609,2.785c0.498,0.287,1.053,0.432,1.608,0.432   s1.111-0.145,1.609-0.432l27.466-15.857v13.072c0,1.148,0.612,2.211,1.608,2.785c0.498,0.287,1.055,0.432,1.609,0.432   s1.111-0.145,1.607-0.432l27.582-15.924c0.996-0.574,1.609-1.637,1.609-2.787C66.311,32.004,65.698,30.94,64.702,30.366z"></path></g></svg>